<?xml version="1.0" encoding="UTF-8" standalone="no"?>
<!DOCTYPE svg PUBLIC "-//W3C//DTD SVG 1.1//EN" "http://www.w3.org/Graphics/SVG/1.1/DTD/svg11.dtd">
<svg xmlns="http://www.w3.org/2000/svg" version="1.1" viewBox="0.00 0.00 819.00 1024.00">
<path fill="#ff4042" d="
  M 465.61 441.92
  L 438.65 414.96
  A 0.45 0.45 0.0 0 1 438.65 414.33
  Q 445.90 406.83 467.75 385.37
  Q 480.21 373.14 485.47 365.52
  C 507.16 334.13 507.52 291.68 486.08 260.21
  C 462.06 224.93 417.81 210.13 377.32 224.43
  C 329.67 241.27 304.66 292.71 319.69 340.81
  Q 325.64 359.83 339.91 375.57
  Q 341.85 377.69 358.74 394.49
  Q 390.04 425.61 431.09 466.80
  Q 432.24 467.95 433.06 470.24
  Q 434.46 474.17 430.94 477.70
  Q 425.00 483.65 414.43 494.19
  C 409.19 499.40 404.65 495.82 400.17 491.34
  Q 329.92 421.02 326.50 417.67
  Q 308.31 399.90 301.90 391.03
  Q 288.05 371.85 281.71 350.26
  C 270.12 310.84 277.22 268.51 301.32 235.07
  C 334.38 189.21 393.46 169.24 447.84 186.10
  C 483.04 197.02 511.56 221.75 527.92 255.06
  Q 535.89 271.29 539.28 290.97
  C 545.31 325.87 536.32 362.06 515.71 390.52
  Q 509.34 399.31 496.13 412.43
  Q 474.05 434.34 466.52 441.92
  A 0.65 0.64 44.7 0 1 465.61 441.92
  Z"
/>
<path fill="#ff4042" d="
  M 408.34 261.35
  C 449.41 261.02 473.39 305.99 451.92 340.20
  Q 448.87 345.05 438.79 355.15
  Q 421.16 372.80 409.67 384.64
  Q 409.57 384.75 409.34 384.75
  Q 409.11 384.75 409.00 384.64
  Q 397.33 372.99 379.41 355.63
  Q 369.17 345.70 366.04 340.89
  C 344.01 307.04 367.27 261.69 408.34 261.35
  Z"
/>
<circle fill="#ff4042" cx="585.82" cy="537.98" r="26.06"/>
<path fill="#ff4042" d="
  M 80.45 651.39
  A 0.42 0.41 0.0 0 0 80.03 651.80
  Q 79.99 697.64 80.04 718.83
  Q 80.06 724.79 78.61 727.18
  Q 75.75 731.86 69.24 731.91
  C 59.72 731.98 50.76 733.52 47.90 725.20
  A 2.42 2.39 35.9 0 1 47.77 724.42
  Q 47.63 632.04 47.72 529.53
  Q 47.73 522.56 48.74 521.21
  C 51.42 517.60 53.79 516.90 58.86 516.91
  Q 87.01 517.00 132.92 516.88
  Q 144.28 516.85 150.46 518.24
  C 175.75 523.93 192.21 542.69 197.93 567.58
  Q 202.57 587.77 196.63 606.85
  C 187.77 635.27 164.55 651.21 135.24 651.40
  Q 114.38 651.53 80.45 651.39
  Z
  M 79.94 543.93
  L 80.08 624.89
  A 0.61 0.61 0.0 0 0 80.69 625.49
  L 128.41 625.41
  A 37.96 37.89 89.9 0 0 166.24 587.38
  L 166.22 581.12
  A 37.96 37.89 89.9 0 0 128.27 543.23
  L 80.55 543.31
  A 0.61 0.61 0.0 0 0 79.94 543.93
  Z"
/>
<rect fill="#ff4042" x="208.28" y="516.83" width="31.34" height="214.94" rx="9.18"/>
<path fill="#ff4042" d="
  M 379.57 708.85
  A 0.42 0.41 4.7 0 0 379.14 708.35
  Q 378.70 708.37 378.35 708.86
  Q 367.11 724.57 349.65 731.12
  C 342.81 733.69 336.35 734.51 328.74 735.69
  C 322.52 736.64 316.89 735.33 309.37 734.02
  C 276.37 728.28 254.22 701.44 249.11 669.45
  Q 248.17 663.53 248.35 657.99
  C 248.52 652.95 248.04 647.54 248.71 642.68
  C 254.72 599.12 289.19 569.79 333.80 574.93
  Q 359.37 577.87 375.42 597.08
  Q 375.81 597.54 378.97 601.51
  A 0.27 0.27 0.0 0 0 379.45 601.32
  Q 379.17 597.63 379.11 591.44
  Q 379.05 584.81 381.12 582.01
  C 384.73 577.16 390.31 577.84 396.94 577.80
  C 403.07 577.77 407.86 578.28 410.25 584.27
  Q 411.33 586.97 411.33 592.90
  Q 411.29 700.11 411.33 719.51
  C 411.34 722.77 410.10 727.49 407.41 729.58
  C 403.36 732.72 398.16 731.92 392.80 731.96
  C 386.77 732.00 382.19 731.07 379.92 725.47
  C 378.37 721.63 379.66 714.46 379.09 711.28
  Q 379.07 711.19 379.57 708.85
  Z
  M 279.64 654.49
  C 279.51 680.34 293.82 703.26 320.77 707.19
  C 353.87 712.00 379.63 687.99 379.81 655.01
  C 379.98 622.03 354.46 597.74 321.31 602.22
  C 294.32 605.86 279.78 628.64 279.64 654.49
  Z"
/>
<path fill="#ff4042" d="
  M 450.65 606.53
  A 0.40 0.40 0.0 0 0 451.42 606.58
  C 459.88 582.93 482.26 573.17 506.22 574.47
  C 543.71 576.51 560.65 605.97 561.06 640.52
  Q 561.47 674.62 561.27 720.04
  C 561.21 732.85 551.89 731.96 542.47 731.95
  Q 537.38 731.94 535.11 730.82
  Q 529.47 728.03 529.48 721.46
  Q 529.56 666.27 529.38 641.04
  C 529.24 620.70 519.04 599.55 495.18 602.20
  C 476.24 604.30 461.26 616.03 455.07 633.83
  Q 450.88 645.87 450.90 660.01
  Q 450.92 674.11 450.95 716.37
  Q 450.96 724.37 449.94 726.43
  Q 447.58 731.20 441.75 731.80
  Q 438.22 732.17 429.56 731.83
  Q 423.45 731.59 420.73 727.20
  Q 419.31 724.92 419.32 718.24
  Q 419.41 601.94 419.30 590.96
  Q 419.23 584.96 420.69 582.67
  Q 423.41 578.39 429.44 577.91
  Q 433.93 577.56 441.02 577.96
  C 449.64 578.45 451.25 584.49 450.96 592.07
  Q 450.95 592.23 450.93 600.66
  C 450.93 602.78 450.25 604.80 450.65 606.53
  Z"
/>
<path fill="#ff4042" d="
  M 642.04 658.23
  A 0.90 0.90 0.0 0 0 641.14 659.15
  C 641.53 685.24 659.87 702.40 684.59 706.62
  C 702.22 709.63 719.99 706.64 735.20 697.38
  C 741.69 693.44 747.45 689.15 754.26 695.74
  Q 757.54 698.90 759.26 701.75
  C 762.23 706.66 760.06 711.89 756.11 715.32
  Q 740.97 728.50 719.20 733.17
  Q 712.02 734.71 703.14 735.60
  Q 697.18 736.20 692.76 735.74
  Q 682.24 734.66 673.78 732.94
  C 655.55 729.25 637.88 719.11 626.29 704.29
  Q 608.90 682.04 610.04 651.78
  C 611.43 614.95 636.55 585.04 672.45 576.72
  C 709.29 568.20 749.36 582.43 764.61 618.90
  Q 769.39 630.33 771.35 645.52
  Q 772.39 653.65 767.33 656.71
  Q 764.69 658.31 755.03 658.31
  Q 697.08 658.33 642.04 658.23
  Z
  M 644.64 634.91
  L 739.44 634.91
  A 0.34 0.34 0.0 0 0 739.77 634.47
  Q 735.77 620.55 725.86 611.98
  C 712.20 600.17 689.56 598.82 673.13 604.87
  Q 652.50 612.46 644.21 634.28
  A 0.46 0.46 0.0 0 0 644.64 634.91
  Z"
/>
<rect fill="#ff4042" x="-15.84" y="-77.01" transform="translate(585.75,654.89) rotate(0.1)" width="31.68" height="154.02" rx="10.03"/>
</svg>
